<svg width="60" height="60" viewBox="0 0 60 60" fill="none" xmlns="http://www.w3.org/2000/svg">
<path d="M9.77833 48.3418C4.68895 43.4489 2.97637 37.2824 7.06272 33.0319C9.15967 30.8508 12.2268 30.5709 15.5306 31.1643C14.6507 28.2736 14.7623 25.5828 17.3432 22.8983C19.9778 20.1579 23.4472 20.8029 26.8607 21.3941C26.013 17.3505 27.8517 13.1991 30.7014 10.235C34.8953 5.87267 42.8276 4.67401 48.1967 9.83573C49.9863 11.5563 51.006 13.1823 51.4126 14.3265L58.2357 20.8862L57.1066 22.0607L52.1314 20.1833C51.852 22.7128 50.5853 25.2617 48.4346 27.4988C42.4664 33.7067 34.4198 31.8898 30.5049 28.1261C28.9389 26.6206 27.8096 24.9968 27.4502 23.4675C25.8607 23.5537 24.824 23.8484 24.1788 24.5196C23.211 25.5262 23.2842 26.4576 24.1855 27.6469L32.3317 37.3081C35.6508 41.4677 34.4811 46.1545 30.7174 50.0694C25.3406 55.6622 15.2033 53.5572 9.77833 48.3418ZM32.7158 26.1622C34.1699 27.5601 36.1766 26.3684 38.0155 25.0153C39.0952 24.1162 40.6588 22.7137 42.003 21.3155C43.401 19.8614 44.7408 18.2438 45.4871 17.1317C46.7689 15.3507 47.7151 13.2471 46.3729 11.9566C45.0306 10.6662 42.9099 11.6407 41.1269 13.0475C39.9376 13.9489 38.3202 15.4073 37.0835 16.6936C35.6856 18.1477 34.3457 19.7653 33.6532 20.8214C32.3176 22.6584 31.2617 24.7642 32.7158 26.1622ZM13.3529 45.9669C16.7645 49.2467 19.6962 50.451 22.0579 50.5691C23.1506 50.3281 24.2389 49.8678 25.3142 48.7492C26.9273 47.0714 26.7292 45.3744 25.2622 43.3182L16.5503 32.7903C14.6425 33.4314 13.4488 34.1133 11.8358 35.7912C9.03983 38.6994 9.32616 42.0956 13.3529 45.9669Z" fill="#4B4239"/>
</svg>
