<svg width="30" height="32" viewBox="0 0 30 32" fill="none" xmlns="http://www.w3.org/2000/svg">
<path d="M5.60568 24.9677C2.79375 23.3123 1.40242 20.6291 3.79635 16.5626C7.23443 10.7225 13.1416 11.8699 17.7704 14.5949L19.655 11.3936C20.9793 9.14405 20.7916 7.28596 19.1477 6.3182C17.6259 5.53883 15.6837 5.96831 14.2098 6.78992L11.4321 9.2324L10.4371 8.64666L13.6969 3.10932C15.2623 2.92406 18.4182 3.50036 21.1868 5.13027C26.3348 8.16088 26.7333 11.5411 25.358 13.8772L16.9029 28.2396L17.7318 30.5917L17.3244 31.2839L10.4892 27.26L11.9154 24.8375C9.78204 26.0864 7.63892 26.1646 5.60568 24.9677ZM9.48512 23.5233C10.5666 24.16 11.9056 23.6666 12.7788 23.0739L16.9045 16.0657C14.1027 14.5911 11.7991 15.0408 9.6344 18.7179C8.18276 21.1838 8.01427 22.6574 9.48512 23.5233Z" fill="#4B4239"/>
</svg>
