<svg width="30" height="30" viewBox="0 0 30 30" fill="none" xmlns="http://www.w3.org/2000/svg">
<path d="M24.8811 22.3796C21.4883 26.1206 15.4069 26.4875 9.31858 20.9659C3.597 15.7769 2.98357 9.6725 6.8088 5.45467C8.50521 3.58416 10.4857 2.506 11.8043 2.23132L16.9024 6.85487L15.9377 7.9185L11.5954 5.85199C10.4593 5.55691 9.10403 5.79833 8.23237 6.61205C7.34793 7.88208 7.84608 9.47021 9.23726 11.4003C10.028 12.5185 11.9053 14.3548 13.8125 16.0845C15.8297 17.9139 17.4998 19.0943 18.3664 19.6129C20.5729 21.0124 22.3146 20.7872 23.4788 19.5035C24.643 18.2199 24.7973 16.3545 23.6082 13.5382L24.0739 13.0247L25.4506 13.939C26.9962 16.8781 26.9766 20.0689 24.8811 22.3796Z" fill="#4B4239"/>
</svg>
