<svg width="40" height="40" viewBox="0 0 40 40" fill="none" xmlns="http://www.w3.org/2000/svg">
<path fill-rule="evenodd" clip-rule="evenodd" d="M9.79603 3.32422C6.22175 3.32422 3.32422 6.22175 3.32422 9.79603V30.1129C3.32422 33.6872 6.22175 36.5847 9.79603 36.5847H19.7583V36.587H24.4616V36.5847H30.1129C33.6872 36.5847 36.5847 33.6872 36.5847 30.1129V9.79603C36.5847 6.22175 33.6872 3.32422 30.1129 3.32422H9.79603ZM24.4616 36.5847V25.2095H28.3842L28.9714 20.775H24.4616V17.9432C24.4616 16.6601 24.8275 15.7847 26.7184 15.7847L29.1298 15.7835V11.8168C28.7124 11.7629 27.2816 11.6417 25.6158 11.6417C22.1382 11.6417 19.7583 13.7083 19.7583 17.5037V20.7738H15.8256V25.2083H19.7583V36.5847H24.4616Z" fill="#4B4239"/>
</svg>
