<svg width="40" height="40" viewBox="0 0 40 40" fill="none" xmlns="http://www.w3.org/2000/svg">
<path fill-rule="evenodd" clip-rule="evenodd" d="M19.9545 3.32422C15.438 3.32422 14.8725 3.34362 13.0986 3.424C7.05909 3.70117 3.70256 7.05217 3.42539 13.0973C3.34362 14.8725 3.32422 15.438 3.32422 19.9545C3.32422 24.471 3.34362 25.0378 3.424 26.8117C3.70117 32.8512 7.05217 36.2078 13.0973 36.4849C14.8725 36.5653 15.438 36.5847 19.9545 36.5847C24.471 36.5847 25.0378 36.5653 26.8117 36.4849C32.8457 36.2078 36.2105 32.8568 36.4835 26.8117C36.5653 25.0378 36.5847 24.471 36.5847 19.9545C36.5847 15.438 36.5653 14.8725 36.4849 13.0986C36.2133 7.06464 32.8581 3.70256 26.8131 3.42539C25.0378 3.34362 24.471 3.32422 19.9545 3.32422ZM19.9538 11.4142C15.2377 11.4142 11.4142 15.2377 11.4142 19.9538C11.4142 24.6698 15.2377 28.4948 19.9538 28.4948C24.6698 28.4948 28.4934 24.6712 28.4934 19.9538C28.4934 15.2377 24.6698 11.4142 19.9538 11.4142ZM19.9533 25.4967C16.892 25.4967 14.4099 23.016 14.4099 19.9533C14.4099 16.892 16.892 14.4099 19.9533 14.4099C23.0147 14.4099 25.4967 16.892 25.4967 19.9533C25.4967 23.016 23.0147 25.4967 19.9533 25.4967ZM28.8323 9.08202C27.7291 9.08202 26.8353 9.9759 26.8353 11.0777C26.8353 12.1794 27.7291 13.0733 28.8323 13.0733C29.934 13.0733 30.8265 12.1794 30.8265 11.0777C30.8265 9.9759 29.934 9.08202 28.8323 9.08202Z" fill="#4B4239"/>
</svg>
