<svg width="1497" height="606" viewBox="0 0 1497 606" fill="none" xmlns="http://www.w3.org/2000/svg">
<path d="M60.5003 521.453C26.9734 489.22 15.6915 448.598 42.6109 420.598C56.4247 406.229 76.6299 404.385 98.3941 408.294C92.5974 389.251 93.3328 371.526 110.335 353.841C127.69 335.788 150.546 340.037 173.033 343.932C167.448 317.294 179.56 289.947 198.333 270.42C225.961 241.683 278.216 233.787 313.585 267.79C325.375 279.124 332.092 289.836 334.77 297.374L379.719 340.586L372.28 348.323L339.506 335.956C337.665 352.619 329.321 369.41 315.153 384.147C275.836 425.043 222.829 413.074 197.039 388.28C186.723 378.362 179.283 367.665 176.916 357.591C166.445 358.158 159.616 360.1 155.365 364.521C148.989 371.153 149.472 377.288 155.409 385.123L209.073 448.767C230.938 476.169 223.233 507.044 198.438 532.834C163.018 569.677 96.2377 555.81 60.5003 521.453ZM211.604 375.342C221.183 384.551 234.402 376.701 246.516 367.787C253.628 361.864 263.929 352.625 272.784 343.414C281.993 333.835 290.82 323.179 295.736 315.853C304.18 304.121 310.413 290.263 301.571 281.762C292.729 273.261 278.758 279.681 267.013 288.948C259.178 294.886 248.523 304.493 240.376 312.967C231.167 322.546 222.341 333.202 217.779 340.16C208.98 352.261 202.024 366.133 211.604 375.342ZM84.0483 505.808C106.522 527.414 125.836 535.348 141.393 536.126C148.591 534.538 155.761 531.505 162.845 524.137C173.471 513.084 172.166 501.905 162.502 488.36L105.111 419.006C92.5434 423.229 84.6798 427.721 74.0538 438.774C55.6353 457.932 57.5215 480.306 84.0483 505.808Z" fill="#4B4239"/>
<path d="M1233.37 487.516C1226.73 546.908 1181.95 584.097 1089.21 573.721C1012.63 565.152 966.76 517.82 973.23 459.992C979.117 407.374 1023.42 383.846 1092.71 391.599L1108.34 393.347L1092.62 505.528L1103.56 506.752C1128.57 509.55 1149.18 509.219 1159.95 507.259C1184.09 503.63 1201.18 492.355 1203.74 469.432C1206.31 446.509 1192.37 429.652 1166.85 412.554L1167.73 404.74L1185.21 404.058C1220.57 422.784 1237.57 450.006 1233.37 487.516ZM1074.91 503.546L1077.67 450.578C1066.73 449.354 1044.79 447.427 1031.59 447.532C1012.03 447.98 993.788 450.687 992.215 464.754C990.582 479.341 1008.06 488.154 1026.41 493.899C1039.66 498.02 1065.01 502.439 1074.91 503.546Z" fill="#4B4239"/>
<path d="M487.088 479.583L482.492 474.302L486.173 452.538L377.598 327.781L354.918 328.379L350.322 323.099L403.789 276.567L429.353 305.941C421.904 274.722 424.393 252.255 440.235 238.468C442.215 236.745 446.793 233.341 451.328 230.554L497.86 284.021L489.609 291.202L466.391 277.187C461.698 277.792 455.598 280.78 452.297 283.653C441.406 293.131 438.038 305.923 440.885 318.525L526.768 417.209L552.462 413.408L557.058 418.689L487.088 479.583Z" fill="#4B4239"/>
<path d="M575.287 529.72C563.769 555.488 541.018 564.183 518.307 554.032L367.19 486.486L344.521 502.03L334.913 497.735L343.698 478.081C339.658 458.983 320.342 428.34 296.926 406.87L302.783 393.767L368.296 423.05L384.304 387.236L404.831 396.412L388.823 432.226L529.458 495.087C542.56 500.943 553.489 501.112 559.151 488.446C563.25 479.274 563.316 470.92 562.072 461.98L576.922 468.617C582.914 483.348 585.243 507.445 575.287 529.72Z" fill="#4B4239"/>
<path d="M722.975 343.226C682.829 301.059 691.35 240.728 746.852 187.886C803.795 133.672 864.745 131.297 903.176 171.661C942.635 213.107 934.441 274.502 879.299 327.001C823.437 380.186 761.406 383.591 722.975 343.226ZM736.671 330.187C746.278 340.278 759.371 337.432 778.317 325.578C790.845 317.086 814.202 297.597 833.663 279.068C853.846 259.852 873.754 237.463 882.85 225.367C895.603 207.729 899.088 194.792 889.48 184.7C880.216 174.97 866.78 177.456 848.537 189.327C836.01 197.819 813.013 216.965 792.831 236.18C773.009 255.052 753.478 276.395 743.661 289.177C729.845 307.141 727.063 320.096 736.671 330.187Z" fill="#4B4239"/>
<path d="M820.715 503.199C794.147 487.559 781.002 462.208 803.62 423.787C836.103 368.609 891.915 379.45 935.649 405.196L953.455 374.95C965.967 353.696 964.193 336.14 948.661 326.997C934.283 319.633 915.933 323.691 902.007 331.454L875.763 354.53L866.362 348.996L897.161 296.679C911.951 294.928 941.769 300.373 967.928 315.773C1016.57 344.407 1020.33 376.343 1007.34 398.415L927.452 534.113L935.284 556.336L931.434 562.876L866.855 524.858L880.33 501.969C860.173 513.77 839.925 514.508 820.715 503.199ZM857.368 489.553C867.586 495.568 880.237 490.907 888.487 485.307L927.468 419.093C900.996 405.16 879.231 409.409 858.778 444.151C845.063 467.449 843.471 481.372 857.368 489.553Z" fill="#4B4239"/>
<path d="M705.258 232.312C694.654 279.514 645.708 311.296 568.889 294.039C496.698 277.821 462.752 229.847 474.708 176.629C480.01 153.028 491.422 134.689 501.113 126.172L565.437 140.622L562.422 154.042L516.474 157.331C505.613 160.239 495.459 168.652 492.038 179.55C490.666 194.312 502.319 205.194 523.03 214.708C534.9 220.291 559.219 226.727 583.283 232.132C608.735 237.85 628.228 239.799 637.899 240.027C662.898 241.268 676.349 231.165 679.987 214.968C683.626 198.771 676.101 182.497 652.89 164.643L654.345 158.165L670.136 159.282C696.899 176.475 711.808 203.158 705.258 232.312Z" fill="#4B4239"/>
<path d="M1444.63 528.139C1406.87 569.769 1339.2 573.853 1271.45 512.408C1207.78 454.664 1200.95 386.734 1243.52 339.798C1262.4 318.983 1284.44 306.985 1299.11 303.929L1355.84 355.38L1345.11 367.216L1296.79 344.22C1284.14 340.936 1269.06 343.623 1259.36 352.678C1249.52 366.811 1255.06 384.483 1270.54 405.962C1279.34 418.405 1300.23 438.839 1321.46 458.087C1343.91 478.445 1362.49 491.581 1372.13 497.351C1396.69 512.926 1416.07 510.419 1429.02 496.135C1441.98 481.85 1443.7 461.092 1430.47 429.752L1435.65 424.038L1450.97 434.212C1468.17 466.919 1467.95 502.426 1444.63 528.139Z" fill="#4B4239"/>
<path d="M1261.47 208.194C1251.2 190.385 1257.15 169.588 1275.39 159.066C1293.63 148.544 1314.61 153.808 1324.89 171.617C1335.16 189.425 1329.46 210.657 1311.22 221.179C1292.97 231.701 1271.74 226.003 1261.47 208.194ZM994.429 307.226L1001.38 303.218L1025.3 312.575L1189.49 217.875L1193.05 190.93L1200 186.922L1241.34 258.591L1055.86 365.567L1051.99 390.958L1045.04 394.967L994.429 307.226Z" fill="#4B4239"/>
<path d="M755.765 534.173C705.456 573.672 640.366 558.049 588.376 491.829C535.035 423.89 538.806 356.984 586.966 319.173C636.416 280.349 702.703 295.727 754.355 361.516C806.683 428.166 803.925 496.361 755.765 534.173ZM742.937 517.833C754.977 508.38 753.232 493.763 742.247 471.805C734.269 457.217 715.396 429.637 697.166 406.417C678.26 382.337 655.854 358.225 643.576 347.013C625.619 331.224 611.835 326.06 599.795 335.513C588.185 344.628 589.5 359.582 600.576 380.773C608.554 395.361 627.09 422.511 645.996 446.591C664.564 470.241 685.864 493.831 698.818 505.903C717.02 522.889 730.897 527.285 742.937 517.833Z" fill="#4B4239"/>
</svg>
