<svg xmlns="http://www.w3.org/2000/svg" width="1497" height="606" fill="#4b4239" xmlns:v="https://vecta.io/nano"><path d="M60.5 521.453c-33.527-32.233-44.809-72.855-17.889-100.855 13.814-14.369 34.019-16.213 55.783-12.304-5.797-19.043-5.061-36.768 11.941-54.453 17.355-18.053 40.211-13.804 62.698-9.909-5.585-26.638 6.527-53.985 25.3-73.512 27.628-28.737 79.883-36.633 115.252-2.63 11.79 11.334 18.507 22.046 21.185 29.584l44.949 43.212-7.439 7.737-32.774-12.367c-1.841 16.663-10.185 33.454-24.353 48.191-39.317 40.896-92.324 28.927-118.114 4.133-10.316-9.918-17.756-20.615-20.123-30.689-10.471.567-17.3 2.509-21.551 6.93-6.376 6.632-5.893 12.767.044 20.602l53.664 63.644c21.865 27.402 14.16 58.277-10.635 84.067-35.42 36.843-102.2 22.976-137.938-11.381zm151.104-146.111c9.579 9.209 22.798 1.359 34.912-7.555 7.112-5.923 17.413-15.162 26.268-24.373 9.209-9.579 18.036-20.235 22.952-27.561 8.444-11.732 14.677-25.59 5.835-34.091s-22.813-2.081-34.558 7.186c-7.835 5.938-18.49 15.545-26.637 24.019-9.209 9.579-18.035 20.235-22.597 27.193-8.799 12.101-15.755 25.973-6.175 35.182zM84.048 505.808c22.474 21.606 41.788 29.54 57.345 30.318 7.198-1.588 14.368-4.621 21.452-11.989 10.626-11.053 9.321-22.232-.343-35.777l-57.391-69.354c-12.568 4.223-20.431 8.715-31.057 19.768-18.418 19.158-16.532 41.532 9.995 67.034zm1149.322-18.292c-6.64 59.392-51.42 96.581-144.16 86.205-76.58-8.569-122.45-55.901-115.98-113.729 5.887-52.618 50.19-76.146 119.48-68.393l15.63 1.748-15.72 112.181 10.94 1.224c25.01 2.798 45.62 2.467 56.39.507 24.14-3.629 41.23-14.904 43.79-37.827 2.57-22.923-11.37-39.78-36.89-56.878l.88-7.814 17.48-.682c35.36 18.726 52.36 45.948 48.16 83.458zm-158.46 16.03l2.76-52.968c-10.94-1.224-32.88-3.151-46.08-3.046-19.56.448-37.802 3.155-39.375 17.222-1.633 14.587 15.845 23.4 34.195 29.145 13.25 4.121 38.6 8.54 48.5 9.647z"/><path d="M487.088 479.583l-4.596-5.281 3.681-21.764-108.575-124.757-22.68.598-4.596-5.28 53.467-46.532 25.564 29.374c-7.449-31.219-4.96-53.686 10.882-67.473 1.98-1.723 6.558-5.127 11.093-7.914l46.532 53.467-8.251 7.181-23.218-14.015c-4.693.605-10.793 3.593-14.094 6.466-10.891 9.478-14.259 22.27-11.412 34.872l85.883 98.684 25.694-3.801 4.596 5.281-69.97 60.894z"/><path d="M575.287 529.72c-11.518 25.768-34.269 34.463-56.98 24.312L367.19 486.486l-22.669 15.544-9.608-4.295 8.785-19.654c-4.04-19.098-23.356-49.741-46.772-71.211l5.857-13.103 65.513 29.283 16.008-35.814 20.527 9.176-16.008 35.814 140.635 62.861c13.102 5.856 24.031 6.025 29.693-6.641 4.099-9.172 4.165-17.526 2.921-26.466l14.85 6.637c5.992 14.731 8.321 38.828-1.635 61.103zm147.688-186.494c-40.146-42.167-31.625-102.498 23.877-155.34 56.943-54.214 117.893-56.589 156.324-16.225 39.459 41.446 31.265 102.841-23.877 155.34-55.862 53.185-117.893 56.59-156.324 16.225zm13.696-13.039c9.607 10.091 22.7 7.245 41.646-4.609 12.528-8.492 35.885-27.981 55.346-46.51 20.183-19.216 40.091-41.605 49.187-53.701 12.753-17.638 16.238-30.575 6.63-40.667-9.264-9.73-22.7-7.244-40.943 4.627-12.527 8.492-35.524 27.638-55.706 46.853-19.822 18.872-39.353 40.215-49.17 52.997-13.816 17.964-16.598 30.919-6.99 41.01z"/><path d="M820.715 503.199c-26.568-15.64-39.713-40.991-17.095-79.412 32.483-55.178 88.295-44.337 132.029-18.591l17.806-30.246c12.512-21.254 10.738-38.81-4.794-47.953-14.378-7.364-32.728-3.306-46.654 4.457l-26.244 23.076-9.401-5.534 30.799-52.317c14.79-1.751 44.608 3.694 70.767 19.094 48.642 28.634 52.402 60.57 39.412 82.642l-79.888 135.698 7.832 22.223-3.85 6.54-64.579-38.018 13.475-22.889c-20.157 11.801-40.405 12.539-59.615 1.23zm36.653-13.646c10.218 6.015 22.869 1.354 31.119-4.246l38.981-66.214c-26.472-13.933-48.237-9.684-68.69 25.058-13.715 23.298-15.307 37.221-1.41 45.402zm-152.11-257.241c-10.604 47.202-59.55 78.984-136.369 61.727-72.191-16.218-106.137-64.192-94.181-117.41 5.302-23.601 16.714-41.94 26.405-50.457l64.324 14.45-3.015 13.42-45.948 3.289c-10.861 2.908-21.015 11.321-24.436 22.219-1.372 14.762 10.281 25.644 30.992 35.158 11.87 5.583 36.189 12.019 60.253 17.424 25.452 5.718 44.945 7.667 54.616 7.895 24.999 1.241 38.45-8.862 42.088-25.059s-3.886-32.471-27.097-50.325l1.455-6.478 15.791 1.117c26.763 17.193 41.672 43.876 35.122 73.03zm739.372 295.827c-37.76 41.63-105.43 45.714-173.18-15.731-63.67-57.744-70.5-125.674-27.93-172.61 18.88-20.815 40.92-32.813 55.59-35.869l56.73 51.451-10.73 11.836-48.32-22.996c-12.65-3.284-27.73-.597-37.43 8.458-9.84 14.133-4.3 31.805 11.18 53.284 8.8 12.443 29.69 32.877 50.92 52.125 22.45 20.358 41.03 33.494 50.67 39.264 24.56 15.575 43.94 13.068 56.89-1.216 12.96-14.285 14.68-35.043 1.45-66.383l5.18-5.714 15.32 10.174c17.2 32.707 16.98 68.214-6.34 93.927zm-183.16-319.945c-10.27-17.809-4.32-38.606 13.92-49.128s39.22-5.258 49.5 12.551c10.27 17.808 4.57 39.04-13.67 49.562-18.25 10.522-39.48 4.824-49.75-12.985zm-267.041 99.032l6.951-4.008 23.92 9.357 164.19-94.7 3.56-26.945 6.95-4.008 41.34 71.669-185.48 106.976-3.87 25.391-6.95 4.009-50.611-87.741z"/><path d="M755.765 534.173c-50.309 39.499-115.399 23.876-167.389-42.344-53.341-67.939-49.57-134.845-1.41-172.656 49.45-38.824 115.737-23.446 167.389 42.343 52.328 66.65 49.57 134.845 1.41 172.657zm-12.828-16.34c12.04-9.453 10.295-24.07-.69-46.028-7.978-14.588-26.851-42.168-45.081-65.388-18.906-24.08-41.312-48.192-53.59-59.404-17.957-15.789-31.741-20.953-43.781-11.5-11.61 9.115-10.295 24.069.781 45.26 7.978 14.588 26.514 41.738 45.42 65.818 18.568 23.65 39.868 47.24 52.822 59.312 18.202 16.986 32.079 21.382 44.119 11.93z"/></svg>