<svg width="32" height="33" viewBox="0 0 32 33" fill="none" xmlns="http://www.w3.org/2000/svg">
<path d="M23.5143 26.2937C18.9573 29.8715 13.0616 28.4564 8.35244 22.4584C3.52093 16.3045 3.86249 10.2443 8.22472 6.81945C12.7038 3.30285 18.708 4.69569 23.3866 10.6548C28.1263 16.6918 27.8765 22.8689 23.5143 26.2937ZM22.3523 24.8137C23.4428 23.9575 23.2848 22.6335 22.2899 20.6446C21.5672 19.3232 19.8577 16.8251 18.2064 14.7218C16.494 12.5407 14.4645 10.3567 13.3524 9.34114C11.7259 7.91099 10.4773 7.44328 9.38673 8.29949C8.33512 9.12513 8.45421 10.4796 9.45753 12.3991C10.1802 13.7204 11.8591 16.1796 13.5715 18.3608C15.2534 20.5029 17.1828 22.6396 18.356 23.7331C20.0048 25.2717 21.2617 25.6699 22.3523 24.8137Z" fill="#4B4239"/>
</svg>
