<svg width="24" height="24" viewBox="0 0 24 24" fill="none" xmlns="http://www.w3.org/2000/svg">
<path d="M21.9649 18.8562C21.8314 19.43 21.5165 19.9455 21.0669 20.3262C20.565 20.8367 19.9659 21.2414 19.305 21.5166C18.6441 21.7917 17.9348 21.9317 17.2189 21.9282H16.8609C15.375 21.8508 13.9186 21.4832 12.5739 20.8462C12.2479 20.6932 11.9309 20.5502 11.5539 20.3762C9.97793 19.4862 8.53146 18.3842 7.25488 17.1012C5.59543 15.5449 4.23558 13.6973 3.24288 11.6502C2.69636 10.5335 2.32822 9.33796 2.15188 8.10722C1.9055 6.82472 2.05116 5.49774 2.56988 4.29922C2.89254 3.7551 3.28747 3.25724 3.74388 2.81922C3.95235 2.5918 4.20445 2.40864 4.48516 2.28065C4.76588 2.15266 5.06947 2.08246 5.37788 2.07422C5.71417 2.10977 6.03998 2.21211 6.33619 2.37524C6.63241 2.53837 6.89306 2.75901 7.10288 3.02422C7.57288 3.54422 8.12288 4.04422 8.62288 4.57422L9.26688 5.20822C9.64688 5.54122 9.88188 6.01022 9.91988 6.51422C9.92088 6.97822 9.74988 7.42522 9.43988 7.77022C9.24467 8.01214 9.03706 8.24378 8.81788 8.46422L8.60288 8.68922C8.47766 8.80557 8.37996 8.94836 8.31688 9.10722C8.26488 9.26122 8.24688 9.42522 8.26688 9.58722C8.43088 10.0312 8.68788 10.4352 9.02188 10.7712C9.54188 11.4752 10.0419 12.0882 10.6039 12.8132C11.5731 13.9315 12.7223 14.8802 14.0039 15.6202C14.1269 15.7202 14.2739 15.7872 14.4319 15.8142C14.5719 15.8352 14.7129 15.8142 14.8399 15.7522C15.2293 15.5438 15.5757 15.2635 15.8609 14.9262C16.2209 14.4822 16.7429 14.2002 17.3109 14.1392C17.5835 14.1402 17.8532 14.1959 18.104 14.3029C18.3547 14.4099 18.5815 14.5661 18.7709 14.7622C19.0042 14.9636 19.2252 15.1779 19.4339 15.4052L19.7399 15.7322L20.0569 16.0382C20.2499 16.2322 20.4339 16.4062 20.6169 16.6102C20.9502 16.8969 21.2602 17.2066 21.5469 17.5392C21.8399 17.9132 21.9879 18.3812 21.9649 18.8562Z" fill="#4B4239"/>
</svg>
