<svg width="40" height="40" viewBox="0 0 40 40" fill="none" xmlns="http://www.w3.org/2000/svg">
<path fill-rule="evenodd" clip-rule="evenodd" d="M36.5847 9.85619C35.361 10.3994 34.0458 10.7653 32.6655 10.9302C34.0749 10.0862 35.1573 8.74889 35.6659 7.15516C34.3479 7.93678 32.8873 8.50498 31.3323 8.81125C30.0892 7.48499 28.3139 6.65625 26.3516 6.65625C21.9459 6.65625 18.7086 10.7667 19.7036 15.0337C14.0341 14.7496 9.00622 12.0334 5.63998 7.9049C3.85223 10.9718 4.71284 14.9838 7.75064 17.0155C6.63364 16.9795 5.58039 16.6732 4.66157 16.1618C4.58673 19.323 6.8526 22.2804 10.1343 22.9386C9.17391 23.1992 8.12204 23.2602 7.05217 23.0551C7.91971 25.7658 10.4392 27.7379 13.4271 27.7933C10.5584 30.0425 6.94407 31.0473 3.32422 30.6204C6.34399 32.5565 9.93197 33.6859 13.7846 33.6859C26.4541 33.6859 33.6121 22.9858 33.1797 13.3887C34.5129 12.4256 35.67 11.224 36.5847 9.85619Z" fill="#4B4239"/>
</svg>
